<svg id="visual" viewBox="0 0 900 600" width="900" height="600" xmlns="http://www.w3.org/2000/svg"
    xmlns:xlink="http://www.w3.org/1999/xlink" version="1.1">
    <rect x="0" y="0" width="900" height="600" fill="#FFFFFF"></rect>
    <path
        d="M0 459L21.5 454.3C43 449.7 86 440.3 128.8 447.2C171.7 454 214.3 477 257.2 482C300 487 343 474 385.8 472.7C428.7 471.3 471.3 481.7 514.2 475.5C557 469.3 600 446.7 642.8 425.8C685.7 405 728.3 386 771.2 385.3C814 384.7 857 402.3 878.5 411.2L900 420L900 601L878.5 601C857 601 814 601 771.2 601C728.3 601 685.7 601 642.8 601C600 601 557 601 514.2 601C471.3 601 428.7 601 385.8 601C343 601 300 601 257.2 601C214.3 601 171.7 601 128.8 601C86 601 43 601 21.5 601L0 601Z"
        fill="#00ac8d" stroke-linecap="round" stroke-linejoin="miter"></path>
</svg>